<svg width="140" height="18" viewBox="0 0 140 18" fill="none" xmlns="http://www.w3.org/2000/svg">
<path d="M0 2.57031C0 2.0599 0.173177 1.63151 0.519531 1.28516C0.884115 0.920573 1.32161 0.738281 1.83203 0.738281H17.7461C18.2565 0.738281 18.694 0.911458 19.0586 1.25781C19.4049 1.6224 19.5781 2.0599 19.5781 2.57031C19.5781 3.08073 19.3958 3.51823 19.0312 3.88281C18.6849 4.22917 18.2565 4.40234 17.7461 4.40234H11.6484V15.4766C11.5391 16.5703 10.9375 17.1628 9.84375 17.2539C9.33333 17.2539 8.88672 17.0898 8.50391 16.7617C8.13932 16.4154 7.95703 15.987 7.95703 15.4766V4.40234H1.83203C1.32161 4.40234 0.893229 4.22005 0.546875 3.85547C0.182292 3.50911 0 3.08073 0 2.57031Z" fill="#F84565"/>
<path d="M28.2461 0C28.8841 0 29.5039 0.109375 30.1055 0.328125C30.7253 0.546875 31.3177 0.865885 31.8828 1.28516C31.974 1.3763 32.0742 1.46745 32.1836 1.55859C32.2747 1.46745 32.375 1.3763 32.4844 1.28516C33.0495 0.865885 33.6328 0.546875 34.2344 0.328125C34.8542 0.109375 35.474 0 36.0938 0C36.7318 0 37.3516 0.109375 37.9531 0.328125C38.5729 0.546875 39.1562 0.875 39.7031 1.3125C40.2682 1.73177 40.7604 2.29688 41.1797 3.00781C41.6172 3.71875 41.8359 4.56641 41.8359 5.55078V15.4219C41.7266 16.5156 41.125 17.1081 40.0312 17.1992C39.5208 17.1992 39.0742 17.0352 38.6914 16.707C38.3268 16.3607 38.1445 15.9323 38.1445 15.4219V5.76953C38.1445 5.33203 38.0625 4.96745 37.8984 4.67578C37.7344 4.36589 37.5521 4.12891 37.3516 3.96484C37.151 3.78255 36.9414 3.65495 36.7227 3.58203C36.5039 3.49089 36.2852 3.44531 36.0664 3.44531C35.8477 3.44531 35.6289 3.49089 35.4102 3.58203C35.2096 3.65495 35.0091 3.78255 34.8086 3.96484C34.6081 4.12891 34.4258 4.36589 34.2617 4.67578C34.0977 4.96745 34.0065 5.33203 33.9883 5.76953V15.4219C33.8789 16.5156 33.2773 17.1081 32.1836 17.1992C31.6732 17.1992 31.2266 17.0352 30.8438 16.707C30.4792 16.3607 30.2969 15.9323 30.2969 15.4219V5.76953C30.2969 5.33203 30.2148 4.96745 30.0508 4.67578C29.8867 4.36589 29.7044 4.12891 29.5039 3.96484C29.3034 3.78255 29.0938 3.65495 28.875 3.58203C28.6562 3.49089 28.4375 3.44531 28.2188 3.44531C28 3.44531 27.7812 3.49089 27.5625 3.58203C27.362 3.65495 27.1615 3.78255 26.9609 3.96484C26.7604 4.12891 26.5781 4.36589 26.4141 4.67578C26.25 4.96745 26.1589 5.33203 26.1406 5.76953V15.4219C26.0495 16.5156 25.457 17.1081 24.3633 17.1992C23.8529 17.1992 23.4062 17.0352 23.0234 16.707C22.6589 16.3607 22.4766 15.9323 22.4766 15.4219V5.55078C22.513 4.56641 22.7409 3.71875 23.1602 3.00781C23.5794 2.29688 24.0716 1.73177 24.6367 1.3125C25.2018 0.875 25.7852 0.546875 26.3867 0.328125C27.0065 0.109375 27.6263 0 28.2461 0Z" fill="#F84565"/>
<path d="M49.793 16.8789C48.418 16.832 47.3789 16.5117 46.6758 15.918C45.9727 15.3086 45.4648 14.6289 45.1523 13.8789C44.8398 13.1133 44.6836 12.3398 44.6836 11.5586C44.6836 10.7461 44.832 9.96484 45.1289 9.21484C45.4414 8.44922 45.9492 7.76953 46.6523 7.17578C47.3711 6.56641 48.2773 6.25391 49.3711 6.23828H58.2773C58.7148 6.23828 59.082 6.39453 59.3789 6.70703C59.6914 7.00391 59.8477 7.37109 59.8477 7.80859C59.8477 8.24609 59.6914 8.62109 59.3789 8.93359C59.082 9.23047 58.7148 9.37891 58.2773 9.37891H49.2773C48.9805 9.37891 48.7227 9.50391 48.5039 9.75391C48.2852 9.98828 48.1211 10.2695 48.0117 10.5977C47.918 10.9102 47.8711 11.2227 47.8711 11.5352C47.8711 11.8633 47.918 12.1914 48.0117 12.5195C48.1211 12.832 48.2852 13.1133 48.5039 13.3633C48.7227 13.5977 48.9805 13.7227 49.2773 13.7383H58.2773C58.7148 13.7383 59.082 13.8945 59.3789 14.207C59.6914 14.5039 59.8477 14.8711 59.8477 15.3086C59.8477 15.7461 59.6914 16.1133 59.3789 16.4102C59.082 16.7227 58.7148 16.8789 58.2773 16.8789H49.793Z" fill="white"/>
<path d="M63.9258 6.00391C64.3477 6.01953 64.707 6.17578 65.0039 6.47266C65.3008 6.75391 65.457 7.10547 65.4727 7.52734V15.6367C65.3789 16.5742 64.8633 17.082 63.9258 17.1602C63.4883 17.1602 63.1055 17.0195 62.7773 16.7383C62.4648 16.4414 62.3086 16.0742 62.3086 15.6367V7.52734C62.3242 7.08984 62.4883 6.73047 62.8008 6.44922C63.1133 6.15234 63.4883 6.00391 63.9258 6.00391ZM61.957 2.95703C61.957 2.51953 62.1445 2.14453 62.5195 1.83203C62.8945 1.51953 63.3477 1.36328 63.8789 1.36328C64.4102 1.36328 64.8633 1.51953 65.2383 1.83203C65.6133 2.14453 65.8008 2.51953 65.8008 2.95703C65.8008 3.41016 65.6133 3.79297 65.2383 4.10547C64.8633 4.41797 64.4102 4.57422 63.8789 4.57422C63.3477 4.57422 62.8945 4.41797 62.5195 4.10547C62.1445 3.79297 61.957 3.41016 61.957 2.95703Z" fill="white"/>
<path d="M75.8086 5.88672C76.6211 5.88672 77.418 5.98047 78.1992 6.16797C78.9961 6.35547 79.7539 6.63672 80.4727 7.01172C81.1914 7.37109 81.8242 7.85547 82.3711 8.46484C82.9336 9.07422 83.2383 9.80078 83.2852 10.6445V15.6367C83.1914 16.5742 82.6758 17.082 81.7383 17.1602C81.3008 17.1602 80.918 17.0195 80.5898 16.7383C80.2773 16.4414 80.1211 16.0742 80.1211 15.6367V11.3711C80.0898 10.8867 79.9023 10.4883 79.5586 10.1758C79.2305 9.84766 78.8555 9.58984 78.4336 9.40234C78.0273 9.21484 77.5977 9.07422 77.1445 8.98047C76.707 8.88672 76.2617 8.83984 75.8086 8.83984C75.3555 8.83984 74.9023 8.88672 74.4492 8.98047C74.0117 9.07422 73.582 9.21484 73.1602 9.40234C72.7539 9.58984 72.3789 9.84766 72.0352 10.1758C71.707 10.4883 71.5273 10.8867 71.4961 11.3711V15.6367C71.418 16.5742 70.9102 17.082 69.9727 17.1602C69.5352 17.1602 69.1523 17.0195 68.8242 16.7383C68.5117 16.4414 68.3555 16.0742 68.3555 15.6367V10.6445C68.4023 9.80078 68.6992 9.07422 69.2461 8.46484C69.793 7.85547 70.4258 7.37109 71.1445 7.01172C71.8633 6.63672 72.6133 6.35547 73.3945 6.16797C74.1914 5.98047 74.9961 5.88672 75.8086 5.88672Z" fill="white"/>
<path d="M91.0664 16.8789C89.6914 16.832 88.6523 16.5117 87.9492 15.918C87.2461 15.3086 86.7383 14.6289 86.4258 13.8789C86.1133 13.1133 85.957 12.3398 85.957 11.5586C85.957 10.7461 86.1055 9.96484 86.4023 9.21484C86.7148 8.44922 87.2227 7.76953 87.9258 7.17578C88.6445 6.56641 89.5508 6.25391 90.6445 6.23828H99.5508C99.9883 6.23828 100.355 6.38672 100.652 6.68359C100.965 6.96484 101.121 7.30859 101.121 7.71484C101.121 8.13672 100.965 8.49609 100.652 8.79297C100.355 9.07422 99.9883 9.21484 99.5508 9.21484H90.7852C90.4414 9.21484 90.1367 9.33203 89.8711 9.56641C89.6211 9.80078 89.4336 10.1055 89.3086 10.4805C89.1992 10.8555 89.1445 11.2227 89.1445 11.582C89.1445 11.9727 89.1992 12.3555 89.3086 12.7305C89.4336 13.1055 89.6211 13.4102 89.8711 13.6445C90.1367 13.8633 90.4414 13.9805 90.7852 13.9961H99.5508C99.9883 13.9961 100.355 14.1367 100.652 14.418C100.965 14.6992 101.121 15.0352 101.121 15.4258C101.121 15.832 100.965 16.1758 100.652 16.457C100.355 16.7383 99.9883 16.8789 99.5508 16.8789H91.0664ZM100.84 11.5117C100.84 11.8086 100.707 12.0664 100.441 12.2852C100.207 12.4883 99.9102 12.5898 99.5508 12.5898H91.8867C91.5273 12.5898 91.2227 12.4883 90.9727 12.2852C90.7227 12.0664 90.5977 11.8086 90.5977 11.5117C90.5977 11.2305 90.7227 10.9805 90.9727 10.7617C91.2227 10.5586 91.5273 10.457 91.8867 10.457H99.5508C99.9102 10.457 100.215 10.5664 100.465 10.7852C100.715 10.9883 100.84 11.2305 100.84 11.5117Z" fill="white"/>
<path d="M108.785 5.88672C109.332 5.88672 109.863 5.98047 110.379 6.16797C110.91 6.35547 111.418 6.62891 111.902 6.98828C111.98 7.06641 112.066 7.14453 112.16 7.22266C112.238 7.14453 112.324 7.06641 112.418 6.98828C112.902 6.62891 113.402 6.35547 113.918 6.16797C114.449 5.98047 114.98 5.88672 115.512 5.88672C116.059 5.88672 116.59 5.98047 117.105 6.16797C117.637 6.35547 118.137 6.63672 118.605 7.01172C119.09 7.37109 119.512 7.85547 119.871 8.46484C120.246 9.07422 120.434 9.80078 120.434 10.6445V15.6367C120.34 16.5742 119.824 17.082 118.887 17.1602C118.449 17.1602 118.066 17.0195 117.738 16.7383C117.426 16.4414 117.27 16.0742 117.27 15.6367V10.832C117.27 10.457 117.199 10.1445 117.059 9.89453C116.918 9.62891 116.762 9.42578 116.59 9.28516C116.418 9.12891 116.238 9.01953 116.051 8.95703C115.863 8.87891 115.676 8.83984 115.488 8.83984C115.301 8.83984 115.113 8.87891 114.926 8.95703C114.754 9.01953 114.582 9.12891 114.41 9.28516C114.238 9.42578 114.082 9.62891 113.941 9.89453C113.801 10.1445 113.723 10.457 113.707 10.832V15.6367C113.613 16.5742 113.098 17.082 112.16 17.1602C111.723 17.1602 111.34 17.0195 111.012 16.7383C110.699 16.4414 110.543 16.0742 110.543 15.6367V10.832C110.543 10.457 110.473 10.1445 110.332 9.89453C110.191 9.62891 110.035 9.42578 109.863 9.28516C109.691 9.12891 109.512 9.01953 109.324 8.95703C109.137 8.87891 108.949 8.83984 108.762 8.83984C108.574 8.83984 108.387 8.87891 108.199 8.95703C108.027 9.01953 107.855 9.12891 107.684 9.28516C107.512 9.42578 107.355 9.62891 107.215 9.89453C107.074 10.1445 106.996 10.457 106.98 10.832V15.6367C106.902 16.5742 106.395 17.082 105.457 17.1602C105.02 17.1602 104.637 17.0195 104.309 16.7383C103.996 16.4414 103.84 16.0742 103.84 15.6367V10.6445C103.871 9.80078 104.066 9.07422 104.426 8.46484C104.785 7.85547 105.207 7.37109 105.691 7.01172C106.176 6.63672 106.676 6.35547 107.191 6.16797C107.723 5.98047 108.254 5.88672 108.785 5.88672Z" fill="white"/>
<path d="M136.441 15.6367V9.98828C136.441 9.59766 136.238 9.39453 135.832 9.37891H127.629C127.332 9.39453 127.074 9.52734 126.855 9.77734C126.637 10.0117 126.473 10.293 126.363 10.6211C126.27 10.9336 126.223 11.2539 126.223 11.582C126.223 11.8945 126.27 12.2148 126.363 12.543C126.473 12.8555 126.637 13.1367 126.855 13.3867C127.074 13.6211 127.332 13.7383 127.629 13.7383H133.629C134.066 13.7383 134.434 13.8945 134.73 14.207C135.043 14.5039 135.199 14.8711 135.199 15.3086C135.199 15.7461 135.043 16.1133 134.73 16.4102C134.434 16.7227 134.066 16.8789 133.629 16.8789H127.723C126.629 16.8633 125.723 16.5586 125.004 15.9648C124.301 15.3555 123.793 14.6758 123.48 13.9258C123.184 13.1602 123.035 12.3711 123.035 11.5586C123.035 10.7773 123.191 10.0117 123.504 9.26172C123.816 8.49609 124.324 7.81641 125.027 7.22266C125.73 6.61328 126.77 6.28516 128.145 6.23828H137.988C138.426 6.23828 138.801 6.38672 139.113 6.68359C139.426 6.96484 139.59 7.32422 139.605 7.76172V15.6367C139.605 16.0742 139.441 16.4414 139.113 16.7383C138.801 17.0195 138.426 17.1602 137.988 17.1602C137.051 17.082 136.535 16.5742 136.441 15.6367Z" fill="white"/>
</svg>
