<svg width="22" height="12" viewBox="0 0 22 12" fill="none" xmlns="http://www.w3.org/2000/svg">
<path d="M0.912231 1.85599C0.666897 1.85599 0.453564 1.77066 0.272231 1.59999C0.0908972 1.41866 0.000230491 1.20533 0.000230491 0.959992V0.911992C0.000230491 0.666659 0.0908972 0.453325 0.272231 0.271992C0.453564 0.0906588 0.666897 -7.62939e-06 0.912231 -7.62939e-06H7.72823C7.97356 -7.62939e-06 8.1869 0.0906588 8.36823 0.271992C8.54956 0.453325 8.64023 0.666659 8.64023 0.911992V0.959992C8.64023 1.20533 8.54956 1.41866 8.36823 1.59999C8.1869 1.77066 7.97356 1.85599 7.72823 1.85599H5.58423C5.4989 1.85599 5.45623 1.90399 5.45623 1.99999V10.768C5.45623 11.0133 5.36556 11.2267 5.18423 11.408C5.0029 11.5893 4.78956 11.68 4.54423 11.68H4.09623C3.8509 11.68 3.63756 11.5893 3.45623 11.408C3.2749 11.2267 3.18423 11.0133 3.18423 10.768V1.99999C3.18423 1.90399 3.14156 1.85599 3.05623 1.85599H0.912231ZM11.6872 11.68C11.4419 11.68 11.2286 11.5893 11.0472 11.408C10.8659 11.2267 10.7752 11.0133 10.7752 10.768V0.911992C10.7752 0.666659 10.8659 0.453325 11.0472 0.271992C11.2286 0.0906588 11.4419 -7.62939e-06 11.6872 -7.62939e-06H12.0872C12.3646 -7.62939e-06 12.6206 0.074659 12.8552 0.223992C13.0899 0.373326 13.2606 0.570659 13.3672 0.815992L16.1672 6.86399C16.1672 6.87466 16.1726 6.87999 16.1832 6.87999C16.1939 6.87999 16.1992 6.87466 16.1992 6.86399L18.9992 0.815992C19.1059 0.570659 19.2766 0.373326 19.5112 0.223992C19.7459 0.074659 20.0019 -7.62939e-06 20.2792 -7.62939e-06H20.7432C20.9886 -7.62939e-06 21.2019 0.0906588 21.3832 0.271992C21.5646 0.453325 21.6552 0.666659 21.6552 0.911992V10.768C21.6552 11.0133 21.5646 11.2267 21.3832 11.408C21.2019 11.5893 20.9886 11.68 20.7432 11.68H20.3912C20.1459 11.68 19.9326 11.5893 19.7512 11.408C19.5699 11.2267 19.4792 11.0133 19.4792 10.768V3.80799C19.4792 3.79733 19.4739 3.79199 19.4632 3.79199C19.4526 3.79199 19.4472 3.79733 19.4472 3.80799L17.5272 7.91999C17.4099 8.16533 17.2286 8.36799 16.9832 8.52799C16.7486 8.67733 16.4979 8.75199 16.2312 8.75199H16.1352C15.8686 8.75199 15.6126 8.67733 15.3672 8.52799C15.1326 8.36799 14.9566 8.16533 14.8392 7.91999L12.9192 3.80799C12.9192 3.79733 12.9139 3.79199 12.9032 3.79199C12.8926 3.79199 12.8872 3.79733 12.8872 3.80799V10.768C12.8872 11.0133 12.7966 11.2267 12.6152 11.408C12.4339 11.5893 12.2206 11.68 11.9752 11.68H11.6872Z" fill="#F84565"/>
</svg>
